Patient5_TMGait_0pt45_1_left_13_EMG.mot
version=1
nRows=26
nColumns=33
inDegrees=no
endheader
time	1LAddLong	2LGlutMax	3LGlutMed	4LIliopsoas	5LSemiMemb	6LBicFemLong	7LRecFem	8LTensFascLat	9LVastMed	10LVasLat	11LGasMed	12lGasLat	13LTibAnt	14LPeroneusLong	15LSol	16LTibPost	17RAddLong	18RGlutMax	19RGlutMed	20RIliopsoas	21RSemiMemb	22RBicFemLong	23RRecFem	24RTensFascLat	25RVastMed	26RVasLat	27RGasMed	28RGasLat	29RTibAnt	30RPeroneusLong	31RSol	32RTibPost
21.405	0.026855	-0.004883	-0.054474	0.001526	0.043182	0.023804	0.026093	-0.1326	0.010834	0.029907	0.021515	-0.033112	0.00473	-0.10452	-0.017395	0.04425	0.00061	-0.007629	0.006714	-0.002289	0.013733	-0.007782	0.001526	-0.002289	0.00824	0.00061	0.010071	-0.011292	-0.007172	-0.014038	-0.014038	0
21.406	0.039215	-0.006561	0.099487	0.002136	0.002136	-0.1033	0.022736	-0.071564	0.001831	0.016937	0.15289	-0.2002	0.026398	-0.10803	0.028076	0.031891	0.000916	-0.006104	0.00351	0.035706	-0.015564	-0.009613	0.014954	-0.004578	0.009003	-0.005493	0.002747	-0.010071	0.005646	-0.005188	-0.015564	-0.00885
21.407	0.029297	-0.004272	0.15381	-0.030212	-0.066833	-0.15839	0.013275	-0.05661	-0.009613	0.011292	0.041199	-0.18066	0.011597	-0.043335	0.041962	0.13123	0.011749	-0.007477	0.001831	0.050201	-0.037231	-0.005646	0	-0.017548	0.017395	-0.005646	0.001526	-0.009003	0.010529	-0.003204	-0.019379	-0.000153
21.408	0.042572	-0.005951	0.22354	-0.04837	-0.057068	-0.16174	0.009308	0.086975	-0.012665	0.005798	0.003815	-0.10101	0.002441	-0.010529	0.092163	0.084534	0.012512	-0.014343	0.037689	0.026703	-0.043945	-0.001373	0.001831	-0.023956	0.007782	-0.006714	-0.003357	-0.008392	-0.000305	-0.00412	-0.019989	0.001068
21.409	0.026093	-0.002136	0.18997	0.012054	-0.012817	-0.17593	0.012054	0.029755	-0.014038	-0.018463	-0.009613	-0.062714	0	-0.002899	0.11475	0.047607	0.009155	-0.014496	0.049591	0.070801	-0.04364	-0.002136	0.001984	-0.014801	0.002441	-0.005951	-0.012665	0.005035	-0.01236	-0.001068	-0.018463	0.000763
21.41	0.055237	-0.006409	0.13184	-0.000916	-0.004272	-0.20309	0.006256	0.022736	-0.006561	-0.028992	-0.01358	-0.042419	-0.010529	-0.011292	0.049896	-0.015106	0.006256	-0.006409	0.061493	-0.081177	-0.069885	-0.002289	0.002289	-0.001526	0.004425	-0.007782	-0.013275	0.001678	-0.009003	0.003204	-0.016479	-0.000153
21.411	0.045013	0.000305	0.053406	0.033417	0.001221	-0.1239	-0.000305	0.078583	-0.009613	-0.011292	0.0177	-0.048065	0.00824	-0.02655	0.010529	-0.16235	0.011139	0.002899	0.00946	0.040588	-0.085602	-0.007477	-0.002136	-0.009308	0.01358	-0.013733	-0.012054	-0.000458	-0.002136	0.001984	-0.014648	-0.000305
21.412	0.058136	-0.000458	0.041809	0.024719	0.000458	-0.083466	-0.019379	0.14984	-0.000916	-0.006409	0.025177	-0.011139	0.002289	-0.012665	-0.066223	-0.082703	0.015564	-0.006256	0.059814	-0.030212	-0.06134	-0.005035	0.004425	-0.014496	0.005035	0.00061	-0.006866	-0.002747	-0.003357	0.000305	-0.012665	-0.003967
21.413	0.0737	0.003357	0.026703	0.019684	-0.007477	-0.06012	-0.031433	0.089874	0.000763	-0.010223	0.016174	-0.001373	0.003204	-0.000305	-0.06424	-0.054016	0.018158	-0.007477	0.037842	-0.075226	-0.068207	-0.008698	-0.003815	-0.033722	0.009613	-0.008087	-0.003357	-0.004272	-0.006714	-0.001831	-0.010986	-0.00824
21.414	0.040741	-0.001984	0.016937	0.002594	-0.002747	0.12482	-0.045471	0.05249	-0.005035	-0.003204	0.007782	0.019226	0.006104	-0.002441	-0.04715	-0.16769	0.01709	-0.005341	0.070038	-0.022583	-0.035858	-0.013885	0.001526	-0.074921	0.000916	-0.009918	-0.005035	-0.003662	-0.001526	0.002747	0.001526	0.002289
21.415	0.021362	0.009766	0.034027	-0.002289	0.008087	0.25955	-0.043182	0.051727	0.000763	0.008392	0.005035	0.004425	0.006866	-0.008698	-0.012665	0.024109	0.01297	-0.005188	0.037384	0.080261	-0.021362	-0.010071	0.002747	-0.096436	0.007172	0.002899	-0.00473	-0.005951	-0.00061	-0.006256	0.011139	-0.003204
21.416	0.004272	0.016174	0.001984	0.003052	0.008087	0.24857	-0.039215	0.023804	0.001831	-0.002594	-0.006561	0.000153	0.011902	-0.005798	0.010986	0.008392	0.009155	-0.002747	0.053558	-0.062866	0.001068	-0.000153	0.006866	-0.058441	0.01358	-0.015869	-0.007782	0.000305	-0.030975	-0.017395	0.004272	-0.001678
21.417	0.002136	0.01709	-0.038757	0.010376	-0.005798	0.22873	-0.024261	-0.054321	0.012054	-0.00885	-0.00412	0.031738	0.00946	-0.00473	-0.007172	0.061951	0.007324	-0.00824	0.041656	-0.10422	0.031891	-0.005188	0.006104	-0.089722	0.00824	-0.007935	-0.001678	-0.00412	-0.054321	-0.021667	0.00351	-0.001373
21.418	0.00351	0.017395	-0.099792	0.009918	0.016327	0.19669	-0.011597	-0.16907	0.016479	0.004272	0.012054	0.042877	0.006714	0.007019	-0.097961	0.024261	0.006561	-0.007172	0.028076	-0.07431	0.045013	-0.009613	0.004425	-0.1326	0.008545	-0.010681	-0.001678	0.015564	-0.056763	-0.004883	-0.004272	-0.007019
21.419	-0.009613	0.016327	-0.12665	0.001373	0.007019	0.21316	-0.001526	-0.21988	0.01297	0.008698	-0.017395	0.070343	-0.000305	0.009308	-0.12405	0.1059	0.007629	-0.004425	0.019073	0.15167	0.06485	-0.000153	0.012817	-0.10452	0.015717	-0.009308	-0.000153	0.014801	-0.054016	0.021057	-0.009003	-0.012817
21.42	-0.00946	0.007782	-0.0914	0.017242	0.014648	0.13473	-0.006714	-0.2063	0.020599	-0.000458	-0.029602	0.073395	-0.004425	0.012817	-0.089722	0.067902	0.011139	0	-0.018768	0.010376	0.071869	-0.00473	0.007935	0.00061	0.011444	-0.015564	0.010986	0.019379	-0.036163	0.011902	-0.009766	-0.004578
21.421	-0.005188	0.005646	-0.11734	0.002289	0.017548	0.012512	0.000763	-0.27023	0.015106	-0.018158	-0.001373	0.063171	-0.002441	0.005646	-0.066833	0.02655	0.006409	0.000458	-0.028229	-0.13336	0.042114	-0.006561	0.014801	0.08194	0.006714	-0.002747	0.018463	0.015106	-0.015411	-0.001068	-0.002747	-0.001221
21.422	-0.015259	0.004883	-0.11917	0.000153	0.023499	0.085144	-0.006714	-0.24216	0	-0.013733	0.026703	0.051117	0.002289	0.007477	-0.054779	0.047302	0.008087	-0.003204	0.025024	-0.071716	0.042877	0.00351	0.012207	0.025482	0.014801	-0.002747	0.023041	0.002747	0.029755	0.028076	0.014343	-0.003662
21.423	-0.012512	-0.002289	-0.029449	-0.005493	0.028839	0.17044	0.006409	-0.098572	0.000763	0.005493	0.005341	0.008698	0.00412	0.009766	-0.050201	0.027161	0.009613	-0.009003	-0.002594	0.009918	0.029602	0.001526	0.007019	-0.022583	0.003204	-0.006409	0.002899	-0.010986	0.12253	0.043335	0.000305	0.003662
21.424	-0.013733	0.009003	-0.05188	-0.007019	0.041809	0.038757	0.001068	-0.11749	0.004578	0.000458	-0.04303	-0.097961	0.000763	-0.001373	-0.034637	-0.11185	0.008545	-0.005646	0.05249	-0.089722	0.04837	-0.000153	0.008392	-0.00946	0.011902	-0.012665	0.00412	-0.027618	0.12405	0.050659	-0.010681	-0.003967
21.425	-0.016785	0.009613	0.052795	0.003815	0.002441	-0.19791	-0.001984	0.077972	0.009308	-0.016174	-0.060883	-0.043488	-0.00412	0.007629	0.001984	-0.22018	0.010834	-0.003357	0.052032	0.061493	0.026703	-0.002441	0.003662	-0.014648	0.013428	-0.000305	-0.004425	-0.02594	0.086365	0.047455	-0.020752	-0.001526
21.426	-0.008698	0.001221	0.14801	-0.00351	-0.029907	-0.32944	-0.00824	0.33569	0.006104	-0.023193	-0.061188	0.012665	0.006714	0.014954	0.006714	-0.000458	0.009155	0.002441	0.06958	-0.18448	0.007782	-0.007782	0.003815	-0.021515	0.013123	0.006256	-0.030975	-0.01297	0.046539	0.02121	-0.035858	-0.000916
21.427	-0.038605	-0.000305	0.071869	0.009155	-0.014954	-0.36057	-0.014038	0.14358	0.001373	-0.024261	-0.009308	0.031433	0.001678	0.027771	-0.029144	-0.031433	0.008087	-0.007935	0.059814	-0.001373	0.016479	-0.010681	0.016022	-0.019379	0.005341	-0.001221	-0.029144	-0.01358	0.014191	-0.017242	-0.027313	-0.001526
21.428	-0.30304	-0.003967	-0.040588	0.008087	-0.049591	-0.41504	-0.01236	-0.1062	-0.000763	-0.028229	0.047607	-0.01236	0.010529	0.020142	-0.036011	0.042877	0.006409	-0.009155	0.065613	0.11276	0.010376	0.006409	0.012665	-0.054932	0.008698	-0.007629	-0.027008	-0.025024	0.012512	-0.061646	0.013733	-0.007019
21.429	-0.15182	-0.007324	-0.06424	0.005341	-0.050507	-0.25986	-0.015564	-0.18723	0.002594	-0.028381	-0.1268	-0.033264	0.006256	0.018311	-0.01709	0.013733	0.011139	-0.003967	0.052032	0.090942	0.066833	-0.004883	0.0177	-0.021515	0.018158	-0.003052	-0.014648	-0.037537	0.012817	-0.060577	0.050507	-0.000305
21.43	-0.077667	-0.02243	-0.005341	-0.000305	-0.01236	-0.056915	-0.023193	-0.13916	0.002289	-0.021973	-0.16892	0.001831	0.006256	0.01236	0.031433	-0.020752	0.00061	-0.00946	0.027161	0.03006	0.2356	0.000763	0.015717	-0.021973	0.00946	0.008698	-0.007782	-0.030365	0.005035	-0.045319	0.073853	-0.009308
